Coordinates
version=1
nRows=19
nColumns=36
inDegrees=yes

Units are S.I. units (second, meters, Newtons, ...)
If the header above contains a line with 'inDegrees', this indicates whether rotational values are in degrees (yes) or radians (no).

endheader
time	pelvis_tilt	pelvis_list	pelvis_rotation	pelvis_tx	pelvis_ty	pelvis_tz	hip_flexion_r	hip_adduction_r	hip_rotation_r	knee_angle_r	knee_angle_r_beta	ankle_angle_r	subtalar_angle_r	mtp_angle_r	hip_flexion_l	hip_adduction_l	hip_rotation_l	knee_angle_l	knee_angle_l_beta	ankle_angle_l	subtalar_angle_l	mtp_angle_l	lumbar_extension	lumbar_bending	lumbar_rotation	arm_flex_r	arm_add_r	arm_rot_r	elbow_flex_r	pro_sup_r	arm_flex_l	arm_add_l	arm_rot_l	elbow_flex_l	pro_sup_l
      1.12000000	    -10.25878382	      2.78643615	     -1.32674096	     -0.75159986	      1.35750690	     -0.56478404	     24.63829541	     -1.78807786	      3.36402105	     44.60017121	      0.77841983	    -27.44750014	    -19.29432098	     -4.78171079	     22.19835657	     -1.31608135	     -4.12760498	     47.80527263	      0.83435941	    -26.56069578	    -13.55569120	     -4.78171079	     -6.46073668	     -0.99295940	     -1.57821588	     73.96445262	    -24.55556661	     34.42983343	     87.59644822	    106.70753224	     77.18122374	    -24.42915092	     25.08585584	     84.68131293	    109.52172325
      1.13000000	    -10.16054127	      2.96941604	     -0.87631611	     -0.74326762	      1.36073303	     -0.56488785	     25.40565963	     -2.25753492	      3.22761478	     42.90949368	      0.74891195	    -26.95490986	    -19.40975347	     -4.81353510	     23.74784059	     -1.20778411	     -3.92139811	     48.52730428	      0.84696124	    -25.88371845	    -13.91051548	     -4.81353510	     -7.06965325	     -1.25677802	     -2.11417703	     73.75443846	    -26.24655017	     34.89883124	     87.64329242	    106.83509180	     76.99249891	    -25.98605944	     25.14855567	     84.55478137	    109.67093760
      1.14000000	     -9.99099153	      3.15243639	     -0.43590862	     -0.73504625	      1.36318221	     -0.56514554	     25.88930243	     -2.72380066	      3.22263717	     40.67826692	      0.70996969	    -26.69339927	    -19.38849807	     -4.85597245	     25.12154219	     -1.04532994	     -3.62970589	     48.76195555	      0.85105667	    -25.10218161	    -13.93315168	     -4.85597245	     -7.82452916	     -1.51340050	     -2.65243665	     73.68893639	    -28.16532751	     35.81418801	     87.69425027	    106.97772315	     76.84871053	    -27.53397130	     25.17992329	     84.28841651	    109.80563178
      1.15000000	     -9.82507113	      3.43266263	     -0.05651408	     -0.72678307	      1.36478827	     -0.56549613	     26.25552679	     -3.30730238	      3.29214814	     38.12101017	      0.66533714	    -26.46182030	    -19.34058270	     -4.87942668	     26.31431493	     -0.74129137	     -3.32423349	     48.38415291	      0.84446277	    -24.34362782	    -13.78190580	     -4.87942668	     -8.56723455	     -1.85978287	     -3.12715463	     73.43867842	    -30.01433711	     36.46090495	     87.68978845	    107.03648500	     76.67843024	    -29.09881520	     25.24481147	     83.84307896	    109.83080865
      1.16000000	     -9.39788604	      3.49316861	      0.43008481	     -0.71851896	      1.36577737	     -0.56590094	     26.17040794	     -3.74636283	      2.98518333	     35.28573953	      0.61585233	    -26.57345639	    -19.24761826	     -4.92563532	     27.17352293	     -0.67443837	     -2.98785294	     47.72186833	      0.83290373	    -22.89959766	    -13.07396897	     -4.92563532	     -9.74458529	     -1.91226672	     -3.64152729	     73.64521641	    -32.29297831	     37.80925573	     88.03163629	    107.10446924	     76.82696349	    -30.93643881	     25.85089396	     83.40002925	    109.87880867
      1.17000000	     -9.29880642	      3.70727130	      0.78253923	     -0.71009393	      1.36526236	     -0.56607636	     26.47765788	     -4.25856746	      2.93672750	     32.56422221	      0.56835290	    -26.49592542	    -19.24484059	     -4.94598006	     28.17370321	     -0.45198515	     -2.86199365	     46.51775225	      0.81188794	    -21.87251306	    -12.92999942	     -4.94598006	    -10.38891304	     -2.15596502	     -4.09413362	     73.33394006	    -34.22495199	     38.57025125	     88.12162529	    107.11683274	     76.54991691	    -32.71696449	     26.00893180	     82.77771558	    109.82833605
      1.18000000	     -8.84936688	      3.66603165	      1.11119817	     -0.70157331	      1.36425121	     -0.56612134	     26.30728583	     -4.51472936	      2.58752820	     29.68809514	      0.51815501	    -27.57243100	    -19.48833722	     -5.07010327	     28.71178890	     -0.57248550	     -2.75624220	     45.10715781	      0.78726842	    -19.79025954	    -11.70346022	     -5.07010327	    -11.57196820	     -2.09239610	     -4.37296977	     73.72196010	    -36.80106519	     40.37174020	     88.63178878	    106.85978195	     76.68645731	    -34.52197742	     26.71107567	     82.06055087	    109.57980375
      1.19000000	     -8.57862215	      3.77246146	      1.40174656	     -0.69281824	      1.36207670	     -0.56616936	     26.44429164	     -4.95817985	      2.09524251	     27.08339071	      0.47269434	    -28.45313842	    -18.86369400	     -5.11469802	     29.26437765	     -0.47707274	     -2.69671344	     43.26720670	      0.75515522	    -18.73630505	    -11.64717723	     -5.11469802	    -12.46744595	     -2.23409650	     -4.69110704	     73.53844268	    -39.11832191	     41.29634967	     89.08867275	    106.75938114	     76.52717600	    -36.34316190	     27.11250295	     81.43129328	    109.36108835
      1.20000000	     -8.25929028	      3.83529006	      1.63013139	     -0.68391522	      1.35891824	     -0.56598421	     26.51464709	     -5.29224962	      1.48965997	     24.50117228	      0.42762613	    -30.03746657	    -18.71176923	     -5.20629204	     29.67433452	     -0.51151572	     -2.82080189	     41.24982836	      0.71994532	    -17.67034591	    -11.33450538	     -5.20629204	    -13.39589494	     -2.34613466	     -4.74439942	     73.57297242	    -41.89793473	     42.79638784	     89.76031323	    106.54505493	     76.65230644	    -38.02381555	     28.07357360	     80.40426060	    109.04718353
      1.21000000	     -8.03910517	      3.96471230	      1.84438626	     -0.67462681	      1.35469130	     -0.56572685	     26.69770864	     -5.71255142	      0.70894030	     22.08554228	      0.38546543	    -31.48292239	    -17.78757994	     -5.24896573	     30.04117669	     -0.50887827	     -3.16240681	     38.98421679	      0.68040294	    -17.15375683	    -11.31440056	     -5.24896573	    -14.15147188	     -2.48974259	     -4.92753566	     73.38580627	    -44.34684903	     43.95537451	     90.35151873	    106.40833537	     76.47321452	    -39.99772772	     28.79978504	     79.65615407	    108.87746407
      1.22000000	     -7.74948810	      4.04368867	      1.96659010	     -0.66507434	      1.34955539	     -0.56508296	     26.76702521	     -5.98335453	     -0.06499512	     19.75638408	      0.34481395	    -32.90836337	    -17.02342749	     -5.30474257	     30.23183514	     -0.66539656	     -3.73242868	     36.63233587	      0.63935487	    -16.95514773	    -11.32361924	     -5.30474257	    -14.93299366	     -2.61263171	     -4.93555054	     73.38194203	    -47.09145704	     45.63938639	     91.14323932	    106.14648901	     76.52993015	    -42.09074827	     30.17074031	     78.67117330	    108.75046152
      1.23000000	     -7.56603822	      4.14527138	      2.05424797	     -0.65523916	      1.34321973	     -0.56430114	     26.96420310	     -6.23880210	     -0.76022308	     17.64215533	      0.30791370	    -34.07613634	    -15.82805623	     -5.35180242	     30.44479549	     -0.79806740	     -4.36288852	     34.24797975	      0.59774001	    -17.05984879	    -11.35801623	     -5.35180242	    -15.51028239	     -2.77872533	     -4.97668476	     73.23260994	    -49.80495884	     47.22673026	     91.97677000	    105.85791176	     76.45502506	    -44.32618852	     31.53207955	     77.76119864	    108.67556626
      1.24000000	     -7.47686262	      4.29022376	      2.05779195	     -0.64516629	      1.33568063	     -0.56344637	     27.24841262	     -6.47811332	     -1.31896322	     15.67207682	      0.27352934	    -34.95985139	    -14.35057509	     -5.38986786	     30.68887790	     -0.85719863	     -4.90220343	     31.91987279	      0.55710688	    -17.53745708	    -11.34246483	     -5.38986786	    -15.94252698	     -3.01629958	     -4.96756897	     73.10250052	    -52.54342966	     48.91695835	     92.94919630	    105.61447275	     76.32167217	    -46.66155086	     32.81897576	     76.93737248	    108.62337092
      1.25000000	     -7.26522596	      4.42787965	      2.02044661	     -0.63478699	      1.32709791	     -0.56264212	     27.42501035	     -6.71581952	     -1.99505039	     13.97379222	      0.24388868	    -35.14576729	    -12.60688491	     -5.48391072	     30.79229554	     -0.94241683	     -5.55180033	     29.71586155	      0.51863962	    -18.58788041	    -11.81485409	     -5.48391072	    -16.41800044	     -3.22096546	     -4.70091875	     73.60812927	    -55.89152607	     51.75778607	     94.27076914	    104.81711985	     76.68619408	    -48.93815904	     35.28325133	     75.69175561	    108.57413286
      1.26000000	     -7.26007007	      4.60944236	      1.94241744	     -0.62396309	      1.31730618	     -0.56161652	     27.76326475	     -6.93486216	     -2.39303092	     12.28864251	      0.21447727	    -35.95017038	    -10.98028909	     -5.51466429	     31.06405974	     -1.02389435	     -6.20384895	     27.60928033	      0.48187285	    -19.53033366	    -11.31307204	     -5.51466429	    -16.61447094	     -3.49793825	     -4.71950542	     73.28580635	    -58.61099401	     53.15247965	     95.56567373	    104.63323808	     76.14981274	    -51.73264507	     36.36217977	     75.26562204	    108.55946110
      1.27000000	     -7.06075693	      4.75694123	      1.84477211	     -0.61294485	      1.30656569	     -0.56065908	     27.98077312	     -7.14901850	     -3.04566303	     11.00391676	      0.19205458	    -35.98128619	     -8.96648055	     -5.66478300	     31.08124547	     -1.07301128	     -6.71952115	     25.58600088	      0.44655996	    -20.81427368	    -11.73603177	     -5.66478300	    -16.97895864	     -3.69951972	     -4.40235454	     74.24242475	    -62.14081156	     56.65200337	     97.24093806	    103.09851204	     76.62387073	    -54.39932985	     39.36024850	     74.23444676	    108.46977959
      1.28000000	     -7.03578735	      4.89907971	      1.77565192	     -0.60152547	      1.29453998	     -0.55968665	     28.36524837	     -7.33411806	     -3.40344719	      9.89574420	      0.17271332	    -36.44440567	     -7.28304234	     -5.69675440	     31.25823139	     -1.12087675	     -7.16002240	     23.71933107	      0.41398042	    -21.73317566	    -11.49990755	     -5.69675440	    -17.11245952	     -3.88438130	     -4.22772990	     74.32011962	    -65.52074210	     58.74853150	     99.07946383	    102.96674272	     76.17481563	    -57.29257715	     40.92958498	     73.81520676	    108.85043204
      1.29000000	     -6.99967227	      5.08900417	      1.60338841	     -0.58990748	      1.28127988	     -0.55872195	     28.70946017	     -7.54741006	     -3.89752941	      8.80842762	      0.15373606	    -36.92061270	     -5.39543978	     -5.78758437	     31.36838464	     -1.13217375	     -7.42747234	     21.98071402	      0.38363583	    -22.71744728	    -11.14585950	     -5.78758437	    -17.12350157	     -4.12708577	     -3.55679918	     75.22689030	    -69.54531725	     61.80722666	    101.15236333	    101.96297918	     76.40502480	    -59.66147967	     43.60243324	     72.86507316	    108.75388742
      1.30000000	     -6.99027878	      5.12705487	      1.41006767	     -0.57798633	      1.26680594	     -0.55757612	     29.07701139	     -7.54733261	     -4.10707431	      7.96202026	      0.13896347	    -37.72749845	     -4.35577212	     -6.03214078	     31.50899278	     -1.34771601	     -7.75563582	     20.42216513	      0.35643402	    -23.63947836	    -10.71324215	     -6.03214078	    -17.08515597	     -4.24218161	     -2.65081441	     75.35043996	    -74.03851005	     64.24585708	    104.07131594	     99.16429881	     76.91976105	    -61.91641094	     46.56147353	     71.95568814	    107.80921502
